<?xml version="1.0" encoding="utf-8"?>
<!-- Generator: Adobe Illustrator 25.2.3, SVG Export Plug-In . SVG Version: 6.00 Build 0)  -->
<svg version="1.1" id="Layer_2" xmlns="http://www.w3.org/2000/svg" xmlns:xlink="http://www.w3.org/1999/xlink" x="0px" y="0px"
	 viewBox="0 0 1313.7 237.1" style="enable-background:new 0 0 1313.7 237.1;" xml:space="preserve">
<style type="text/css">
	.st0{fill:#FFFFFF;}
</style>
<g>
	<path class="st0" d="M67,6.9v219.3H11.1V6.9H67z"/>
	<path class="st0" d="M216.9,135.3c0,22-0.5,37.6-1.5,46.8c-1,9.2-4.2,17.5-9.5,25.1c-5.3,7.6-12.6,13.4-21.7,17.5
		c-9.1,4.1-19.7,6.1-31.8,6.1c-11.5,0-21.8-1.9-31-5.8c-9.1-3.8-16.5-9.6-22.1-17.3c-5.6-7.7-8.9-16-9.9-25.1
		c-1.1-9-1.6-24.8-1.6-47.4V97.8c0-22,0.5-37.6,1.5-46.8c1-9.2,4.2-17.5,9.5-25.1c5.3-7.6,12.6-13.4,21.7-17.5
		c9.1-4.1,19.7-6.1,31.8-6.1c11.5,0,21.8,1.9,31,5.8c9.1,3.8,16.5,9.6,22.1,17.3c5.6,7.7,8.9,16,9.9,25.1c1.1,9,1.6,24.8,1.6,47.4
		V135.3z M161.1,63.3c0-10.2-0.6-16.7-1.7-19.6c-1.1-2.8-3.4-4.3-6.8-4.3c-2.9,0-5.1,1.2-6.7,3.5c-1.5,2.3-2.3,9.1-2.3,20.4v102.4
		c0,12.7,0.5,20.6,1.5,23.6c1,3,3.4,4.5,7.1,4.5c3.8,0,6.2-1.7,7.3-5.1c1.1-3.4,1.6-11.6,1.6-24.5V63.3z"/>
	<path class="st0" d="M350.2,6.9v43.9H317v175.4h-55.8V50.8h-33V6.9H350.2z"/>
	<path class="st0" d="M408.8,117.5v37.8h-70.4v-37.8H408.8z"/>
	<path class="st0" d="M521.2,6.9l31.9,219.3h-57l-3-39.4h-20l-3.4,39.4H412L440.5,6.9H521.2z M491.6,147.9
		c-2.8-24.8-5.7-55.5-8.5-92.1c-5.7,42-9.3,72.7-10.7,92.1H491.6z"/>
	<path class="st0" d="M562.6,6.9h56.2c15.2,0,26.9,1.2,35.1,3.7c8.2,2.4,14.3,6,18.4,10.6c4.1,4.6,6.9,10.2,8.4,16.7
		c1.5,6.5,2.2,16.7,2.2,30.4v19.1c0,14-1.4,24.2-4.2,30.6c-2.8,6.4-8,11.3-15.6,14.8c-7.6,3.4-17.4,5.1-29.6,5.1h-15v88.3h-55.8V6.9
		z M618.4,44.5v55.8c1.6,0.1,3,0.1,4.1,0.1c5.1,0,8.7-1.3,10.7-3.9s3-7.9,3-16v-18c0-7.5-1.1-12.4-3.4-14.6
		C630.4,45.6,625.6,44.5,618.4,44.5z"/>
	<path class="st0" d="M698.9,6.9h56.2c15.2,0,26.9,1.2,35.1,3.7c8.2,2.4,14.3,6,18.4,10.6c4.1,4.6,6.9,10.2,8.4,16.7
		c1.5,6.5,2.2,16.7,2.2,30.4v19.1c0,14-1.4,24.2-4.2,30.6c-2.8,6.4-8,11.3-15.6,14.8c-7.6,3.4-17.4,5.1-29.6,5.1h-15v88.3h-55.8V6.9
		z M754.7,44.5v55.8c1.6,0.1,3,0.1,4.1,0.1c5.1,0,8.7-1.3,10.7-3.9c2-2.6,3-7.9,3-16v-18c0-7.5-1.1-12.4-3.4-14.6
		C766.7,45.6,761.9,44.5,754.7,44.5z"/>
	<path class="st0" d="M1045.3,6.9l-24.9,219.3h-69.7c-6.4-33.7-12-72-16.9-115c-2.2,18.4-7.4,56.7-15.6,115H849L824,6.9h54.2
		l5.9,76.5l5.7,74c2.1-38.3,7.2-88.4,15.4-150.5h58c0.8,6.4,2.8,30.5,6.1,72.3l6.2,83.4c3.2-53.1,8.4-105,15.6-155.7H1045.3z"/>
	<path class="st0" d="M1056.3,6.9h93.1v43.9h-37.3v41.6h34.9v41.7h-34.9v48.2h41v43.9h-96.8V6.9z"/>
	<path class="st0" d="M1169.2,6.9h55.7c17.6,0,30.9,1.4,40,4.2c9.1,2.8,16.4,8.5,21.9,17c5.6,8.5,8.4,22.3,8.4,41.2
		c0,12.8-2,21.7-5.9,26.8c-3.9,5.1-11.7,8.9-23.3,11.6c12.9,3,21.7,7.9,26.3,14.8c4.6,6.9,6.9,17.5,6.9,31.8v20.3
		c0,14.8-1.7,25.8-5,32.9c-3.3,7.1-8.6,12-15.8,14.6c-7.2,2.6-22.1,3.9-44.5,3.9h-64.6V6.9z M1225,44.5v48.8
		c2.4-0.1,4.2-0.1,5.6-0.1c5.5,0,9-1.4,10.5-4.1c1.5-2.8,2.3-10.6,2.3-23.6c0-6.9-0.6-11.7-1.9-14.4c-1.2-2.8-2.9-4.5-4.8-5.2
		C1234.6,45,1230.7,44.5,1225,44.5z M1225,127.3v61.3c7.9-0.3,12.9-1.5,15-3.8c2.2-2.3,3.2-7.8,3.2-16.7v-20.5
		c0-9.4-1-15.1-2.9-17.1C1238.4,128.7,1233.3,127.6,1225,127.3z"/>
</g>
</svg>
